<svg width="454.4" height="129.6" viewBox="0 0 454.4 129.6" xmlns="http://www.w3.org/2000/svg"><g id="svgGroup" stroke-linecap="round" fill-rule="nonzero" font-size="9pt" stroke="#728649" stroke-width="0.25mm" fill="#728649" style="stroke:#728649;stroke-width:0.25mm;fill:#728649"><path d="M 277 111 L 272.4 22.2 L 282.6 6.2 L 231.6 125.8 Q 231.4 126.6 230.1 126.6 Q 228.8 126.6 228.4 125.8 L 172.2 18.8 Q 164.6 4.6 154 4.6 Q 153.4 4.6 153.4 3.4 Q 153.4 2.2 154 2.2 Q 158.2 2.2 162.8 2.4 Q 167.4 2.6 170.6 2.6 Q 175.8 2.6 179.7 2.4 Q 183.6 2.2 185.8 2.2 Q 188.6 2.2 190.1 4.2 Q 191.6 6.2 195 12.6 L 239.8 96.6 L 229.8 114.6 L 276.6 7.2 Q 277.8 4.4 279.1 3.3 Q 280.4 2.2 282.6 2.2 Q 284.6 2.2 286.8 2.4 Q 289 2.6 292 2.6 Q 298.4 2.6 302.9 2.4 Q 307.4 2.2 311.8 2.2 Q 312.4 2.2 312.4 3.4 Q 312.4 4.6 311.8 4.6 Q 302.6 4.6 298.3 8.4 Q 294 12.2 294.4 20.2 L 299.2 111 Q 299.6 116.8 300.7 119.8 Q 301.8 122.8 304.8 123.8 Q 307.8 124.8 313.8 124.8 Q 314.2 124.8 314.2 126 Q 314.2 127.2 313.8 127.2 Q 308.6 127.2 302 127 Q 295.4 126.8 288.2 126.8 Q 280.8 126.8 274.4 127 Q 268 127.2 262.8 127.2 Q 262.2 127.2 262.2 126 Q 262.2 124.8 262.8 124.8 Q 272.2 124.8 274.9 122.2 Q 277.6 119.6 277 111 Z M 334 117.8 L 333.4 86 Q 333.2 85 334.3 84.9 Q 335.4 84.8 335.6 85.6 Q 338.6 91.8 342.2 98.7 Q 345.8 105.6 350.3 111.4 Q 354.8 117.2 360.4 120.9 Q 366 124.6 373.2 124.6 Q 377.8 124.6 382 123 Q 386.2 121.4 388.9 117.2 Q 391.6 113 391.6 105.6 Q 391.6 96.2 387.4 89.5 Q 383.2 82.8 376.6 77.7 Q 370 72.6 362.8 68 Q 355.8 63.4 349.4 58.5 Q 343 53.6 339 47.3 Q 335 41 335 32.2 Q 335 21 341.3 13.9 Q 347.6 6.8 357.3 3.4 Q 367 0 377 0 Q 384.2 0 391.4 1.3 Q 398.6 2.6 402.8 4.4 Q 404.8 5.2 405.3 6.2 Q 405.8 7.2 405.8 8.4 L 405.8 37.8 Q 405.8 38.4 404.9 38.7 Q 404 39 403.6 38.4 Q 402.4 36 400.2 30.5 Q 398 25 394.4 19 Q 390.8 13 385.2 8.7 Q 379.6 4.4 371.6 4.4 Q 366.6 4.4 362.5 6.4 Q 358.4 8.4 355.9 12.3 Q 353.4 16.2 353.4 22.4 Q 353.4 30 357.3 35.7 Q 361.2 41.4 367.5 46 Q 373.8 50.6 380.8 55.2 Q 388.4 60 395.3 65.3 Q 402.2 70.6 406.7 77.5 Q 411.2 84.4 411.2 94 Q 411.2 104.6 405.5 112.6 Q 399.8 120.6 390.1 125.1 Q 380.4 129.6 368 129.6 Q 362 129.6 355.5 128.4 Q 349 127.2 343.7 125.4 Q 338.4 123.6 336 121.6 Q 335.2 121 334.6 120.3 Q 334 119.6 334 117.8 Z M 16.2 111 L 16.2 18.4 Q 16.2 12.6 15.1 9.7 Q 14 6.8 10.7 5.7 Q 7.4 4.6 0.8 4.6 Q 0.2 4.6 0.2 3.4 Q 0.2 2.2 0.8 2.2 Q 6 2.2 12.6 2.5 Q 19.2 2.8 26.4 2.8 Q 35.6 2.8 42.5 2.5 Q 49.4 2.2 55 2.2 Q 55.4 2.2 55.4 3.4 Q 55.4 4.6 55 4.6 Q 48 4.6 44.4 5.8 Q 40.8 7 39.6 10 Q 38.4 13 38.4 18.8 L 38.4 111 Q 38.4 116.8 39.6 119.8 Q 40.8 122.8 44.4 123.8 Q 48 124.8 55 124.8 Q 55.4 124.8 55.4 126 Q 55.4 127.2 55 127.2 Q 49.2 127.2 42.4 127 Q 35.6 126.8 26.4 126.8 Q 19.2 126.8 12.4 127 Q 5.6 127.2 0.4 127.2 Q 0 127.2 0 126 Q 0 124.8 0.4 124.8 Q 7.2 124.8 10.5 123.8 Q 13.8 122.8 15 119.8 Q 16.2 116.8 16.2 111 Z M 170.6 101.8 L 172.6 6.8 L 178.4 7.2 L 176.2 101.8 Q 176 112.4 180.5 118.6 Q 185 124.8 193.2 124.8 Q 193.8 124.8 193.8 126 Q 193.8 127.2 193.2 127.2 Q 188.8 127.2 184.2 127 Q 179.6 126.8 173.8 126.8 Q 167.4 126.8 162.2 127 Q 157 127.2 152.6 127.2 Q 152 127.2 152 126 Q 152 124.8 152.6 124.8 Q 160.8 124.8 165.6 118.6 Q 170.4 112.4 170.6 101.8 Z M 113.2 65 L 26.6 65 L 26.6 59.4 L 113.2 59.4 L 113.2 65 Z M 103 111 Q 103 116.8 101.9 119.8 Q 100.8 122.8 97.2 123.8 Q 93.6 124.8 86.4 124.8 Q 85.8 124.8 85.8 126 Q 85.8 127.2 86.4 127.2 Q 91.6 127.2 98.3 127 Q 105 126.8 114.2 126.8 Q 121.4 126.8 128.5 127 Q 135.6 127.2 140.8 127.2 Q 141.4 127.2 141.4 126 Q 141.4 124.8 140.8 124.8 Q 134.2 124.8 130.8 123.8 Q 127.4 122.8 126.3 119.8 Q 125.2 116.8 125.2 111 L 125.2 18.4 Q 125.2 12.6 126.3 9.7 Q 127.4 6.8 130.8 5.7 Q 134.2 4.6 140.8 4.6 Q 141.4 4.6 141.4 3.4 Q 141.4 2.2 140.8 2.2 Q 135.6 2.2 128.5 2.5 Q 121.4 2.8 114.2 2.8 Q 105 2.8 98.3 2.5 Q 91.6 2.2 86.4 2.2 Q 85.8 2.2 85.8 3.4 Q 85.8 4.6 86.4 4.6 Q 93.6 4.6 97.2 5.8 Q 100.8 7 101.9 10 Q 103 13 103 18.8 L 103 111 Z M 442.6 129.4 Q 437 129.4 433.7 126.1 Q 430.4 122.8 430.4 117.2 Q 430.4 112 433.7 108.8 Q 437 105.6 442.6 105.6 Q 448.4 105.6 451.4 108.8 Q 454.4 112 454.4 117.2 Q 454.4 122.8 451.4 126.1 Q 448.4 129.4 442.6 129.4 Z" vector-effect="non-scaling-stroke"/></g></svg>